<svg width="67" height="67" viewBox="0 0 67 67" fill="none" xmlns="http://www.w3.org/2000/svg">
<path d="M0.599375 19.9468C0.920511 10.5005 8.14537 2.73103 17.5435 1.72547L25.5532 0.868476C30.949 0.291158 36.3911 0.294203 41.7862 0.87756L49.477 1.70914C58.866 2.72434 66.0791 10.4899 66.4 19.9282L66.8621 33.5202L66.4058 46.9413C66.0824 56.4534 58.7619 64.254 49.2895 65.1802L40.8858 66.002C35.9736 66.4823 31.0264 66.4823 26.1142 66.002L17.7105 65.1802C8.23808 64.254 0.917569 56.4534 0.594198 46.9413L0.137939 33.5202L0.599375 19.9468Z" fill="#132F38"/>
<path fill-rule="evenodd" clip-rule="evenodd" d="M40.8653 48.23C38.9851 49.0254 36.729 49.4231 34.0968 49.4231C31.6237 49.4231 29.4615 49.0616 27.6103 48.3384C25.7736 47.6008 24.3273 46.5523 23.2715 45.1928C22.2158 43.8189 21.6228 42.1701 21.4926 40.2466L21.4709 39.8995H27.6537L27.6971 40.1381C27.8417 40.9481 28.2033 41.6495 28.7818 42.2425C29.3747 42.821 30.1413 43.2765 31.0813 43.6092C32.0214 43.9273 33.0844 44.0864 34.2703 44.0864C35.4852 44.0864 36.5265 43.9273 37.3942 43.6092C38.2765 43.2765 38.9562 42.8137 39.4335 42.2208C39.9252 41.6133 40.1711 40.9119 40.1711 40.1165V40.0948C40.1711 39.039 39.7516 38.2146 38.9128 37.6217C38.0884 37.0142 36.7 36.508 34.7476 36.1031L31.4501 35.4523C28.6513 34.8872 26.4792 33.97 24.9339 32.7006H42.972C43.5222 33.0321 44.0059 33.3925 44.4231 33.7818C45.9561 35.1847 46.7226 37.1155 46.7226 39.5741V39.5958C46.7226 41.6061 46.2164 43.3488 45.204 44.824C44.2061 46.2847 42.7599 47.4201 40.8653 48.23ZM22.2955 28.2734C22.1941 27.7302 22.1435 27.1583 22.1435 26.5578V26.5361C22.1435 24.627 22.6569 22.9638 23.6837 21.5465C24.7106 20.1147 26.1207 19.0083 27.914 18.2273C29.7074 17.4319 31.7611 17.0342 34.0751 17.0342C36.4903 17.0342 38.5729 17.4102 40.3229 18.1623C42.0874 18.9143 43.4613 19.9773 44.4448 21.3513C45.4282 22.7252 45.9706 24.3233 46.0718 26.1456L46.0935 26.5578L39.9107 26.5578L39.889 26.2975C39.7733 25.4731 39.4624 24.7717 38.9562 24.1932C38.45 23.6002 37.7775 23.1446 36.9387 22.8264C36.1143 22.5083 35.1598 22.3492 34.0751 22.3492C32.9615 22.3492 31.9997 22.5155 31.1898 22.8481C30.3799 23.1663 29.758 23.6074 29.3241 24.1715C28.9047 24.7355 28.695 25.3935 28.695 26.1456V26.1673C28.695 27.0061 29.0001 27.7082 29.6104 28.2734H22.2955Z" fill="white"/>
</svg>
